<?xml version="1.0" encoding="UTF-8"?>
<!DOCTYPE svg PUBLIC "-//W3C//DTD SVG 1.1//EN" "http://www.w3.org/Graphics/SVG/1.1/DTD/svg11.dtd">
<!-- Creator: CorelDRAW 2021 (64-Bit) -->
<svg xmlns="http://www.w3.org/2000/svg" xml:space="preserve" width="5mm" height="6.47059mm" version="1.1" style="shape-rendering:geometricPrecision; text-rendering:geometricPrecision; image-rendering:optimizeQuality; fill-rule:evenodd; clip-rule:evenodd"
viewBox="0 0 500 647.06"
 xmlns:xlink="http://www.w3.org/1999/xlink"
 xmlns:xodm="http://www.corel.com/coreldraw/odm/2003">
 <defs>
  <style type="text/css">
   <![CDATA[
    .fil0 {fill:white}
   ]]>
  </style>
 </defs>
 <g id="Layer_x0020_1">
  <metadata id="CorelCorpID_0Corel-Layer"/>
  <path class="fil0" d="M490.95 545.13c18.25,-60.01 -0.25,-124.33 10.58,-186.34l32.78 -8.18c26.45,-4.19 56.29,-39.01 -3.13,-90.67 -30.47,-26.49 -54.93,-49.98 -84.79,-77.26 -55.02,-50.26 -138.27,-147.06 -188.53,-133.84 -24.09,6.33 -148.13,126.55 -174.92,151.04 -46.91,42.88 -120.26,87.36 -91.29,135.79 14.12,23.61 28,15.55 53.91,28.37 10.98,122.88 -32.36,207.53 69.66,212.64 170.74,8.55 75.8,-36.49 109.67,-160.18 25.67,-8.12 70.86,-11.81 96.65,0.9 24.56,38.86 -12.6,123.66 18.79,151.64 21.12,17.84 143.99,15.83 150.63,-23.89z"/>
 </g>
</svg>
