<svg xmlns="http://www.w3.org/2000/svg" width="19" height="23" viewBox="0 0 19 23" fill="none">
  <path d="M9.71253 11.7197C10.3308 11.7197 10.8603 11.49 11.3009 11.0306C11.7409 10.572 11.9608 10.0204 11.9608 9.3758C11.9608 8.73121 11.7409 8.17921 11.3009 7.7198C10.8603 7.26116 10.3308 7.03185 9.71253 7.03185C9.09425 7.03185 8.56516 7.26116 8.12525 7.7198C7.68459 8.17921 7.46425 8.73121 7.46425 9.3758C7.46425 10.0204 7.68459 10.572 8.12525 11.0306C8.56516 11.49 9.09425 11.7197 9.71253 11.7197ZM9.71253 23C9.56265 23 9.41276 22.9707 9.26288 22.9121C9.11299 22.8535 8.98184 22.7754 8.86943 22.6777C6.13402 20.158 4.09184 17.8191 2.74287 15.6611C1.3939 13.5023 0.719421 11.4854 0.719421 9.61019C0.719421 6.68025 1.6236 4.34607 3.43197 2.60764C5.23958 0.869214 7.3331 0 9.71253 0C12.092 0 14.1855 0.869214 15.9931 2.60764C17.8015 4.34607 18.7056 6.68025 18.7056 9.61019C18.7056 11.4854 18.0312 13.5023 16.6822 15.6611C15.3332 17.8191 13.291 20.158 10.5556 22.6777C10.4432 22.7754 10.3121 22.8535 10.1622 22.9121C10.0123 22.9707 9.86242 23 9.71253 23Z" fill="#AFAFAF"/>
</svg>