<svg width="37" height="46" viewBox="0 0 37 46" fill="none" xmlns="http://www.w3.org/2000/svg">
<path d="M18.8132 23.4395C20.0498 23.4395 21.1087 22.9801 21.9901 22.0612C22.8699 21.144 23.3098 20.0408 23.3098 18.7516C23.3098 17.4624 22.8699 16.3584 21.9901 15.4396C21.1087 14.5223 20.0498 14.0637 18.8132 14.0637C17.5767 14.0637 16.5185 14.5223 15.6387 15.4396C14.7574 16.3584 14.3167 17.4624 14.3167 18.7516C14.3167 20.0408 14.7574 21.144 15.6387 22.0612C16.5185 22.9801 17.5767 23.4395 18.8132 23.4395ZM18.8132 46C18.5135 46 18.2137 45.9414 17.9139 45.8242C17.6142 45.707 17.3519 45.5507 17.127 45.3554C11.6562 40.3159 7.57186 35.6382 4.87393 31.3222C2.17599 27.0046 0.827026 22.9707 0.827026 19.2204C0.827026 13.3605 2.63539 8.69214 6.25212 5.21529C9.86735 1.73843 14.0544 0 18.8132 0C23.5721 0 27.7591 1.73843 31.3744 5.21529C34.9911 8.69214 36.7995 13.3605 36.7995 19.2204C36.7995 22.9707 35.4505 27.0046 32.7526 31.3222C30.0546 35.6382 25.9703 40.3159 20.4995 45.3554C20.2746 45.5507 20.0123 45.707 19.7126 45.8242C19.4128 45.9414 19.113 46 18.8132 46Z" fill="#008FA0"/>
</svg>
