<?xml version="1.0" encoding="UTF-8"?>
<!DOCTYPE svg PUBLIC "-//W3C//DTD SVG 1.1//EN" "http://www.w3.org/Graphics/SVG/1.1/DTD/svg11.dtd">
<!-- Creator: CorelDRAW 2021 (64-Bit) -->
<svg xmlns="http://www.w3.org/2000/svg" xml:space="preserve" width="5mm" height="6.47059mm" version="1.1" style="shape-rendering:geometricPrecision; text-rendering:geometricPrecision; image-rendering:optimizeQuality; fill-rule:evenodd; clip-rule:evenodd"
viewBox="0 0 500 647.06"
 xmlns:xlink="http://www.w3.org/1999/xlink"
 xmlns:xodm="http://www.corel.com/coreldraw/odm/2003">
 <defs>
  <style type="text/css">
   <![CDATA[
    .fil0 {fill:white;fill-rule:nonzero}
   ]]>
  </style>
 </defs>
 <g id="Layer_x0020_1">
  <metadata id="CorelCorpID_0Corel-Layer"/>
  <path class="fil0" d="M244.13 336.95c14.31,0 26.56,-5.31 36.75,-15.94 10.18,-10.61 15.27,-23.37 15.27,-38.28 0,-14.92 -5.09,-27.69 -15.27,-38.32 -10.2,-10.61 -22.45,-15.92 -36.75,-15.92 -14.31,0 -26.54,5.31 -36.72,15.92 -10.2,10.63 -15.29,23.4 -15.29,38.32 0,14.91 5.1,27.68 15.29,38.28 10.18,10.63 22.41,15.94 36.72,15.94zm0 260.99c-3.46,0 -6.93,-0.67 -10.4,-2.03 -3.47,-1.36 -6.51,-3.17 -9.1,-5.43 -63.29,-58.29 -110.54,-112.41 -141.75,-162.34 -31.21,-49.95 -46.82,-96.62 -46.82,-140 0,-67.79 20.92,-121.8 62.76,-162.02 41.83,-40.22 90.26,-60.33 145.31,-60.33 55.06,0 103.49,20.11 145.32,60.33 41.83,40.23 62.75,94.23 62.75,162.02 0,43.38 -15.6,90.05 -46.81,140 -31.21,49.92 -78.47,104.04 -141.75,162.34 -2.6,2.26 -5.63,4.07 -9.1,5.43 -3.47,1.36 -6.93,2.03 -10.41,2.03z"/>
 </g>
</svg>
