<?xml version="1.0" encoding="UTF-8"?>
<!DOCTYPE svg PUBLIC "-//W3C//DTD SVG 1.1//EN" "http://www.w3.org/Graphics/SVG/1.1/DTD/svg11.dtd">
<!-- Creator: CorelDRAW 2021 (64-Bit) -->
<svg xmlns="http://www.w3.org/2000/svg" xml:space="preserve" width="5mm" height="6.47059mm" version="1.1" style="shape-rendering:geometricPrecision; text-rendering:geometricPrecision; image-rendering:optimizeQuality; fill-rule:evenodd; clip-rule:evenodd"
viewBox="0 0 500 647.06"
 xmlns:xlink="http://www.w3.org/1999/xlink"
 xmlns:xodm="http://www.corel.com/coreldraw/odm/2003">
 <defs>
  <style type="text/css">
   <![CDATA[
    .fil1 {fill:#AFAFAF}
    .fil0 {fill:white}
   ]]>
  </style>
 </defs>
 <g id="Layer_x0020_1">
  <metadata id="CorelCorpID_0Corel-Layer"/>
  <path class="fil0" d="M386.05 261.3c18.39,29.31 8.65,68.85 -29.72,52.61 -29.4,-12.45 -24.8,-64.43 29.72,-52.61zm-103.5 -0.23c20.75,30.81 6.54,68.73 -29.93,52.6 -23.4,-10.35 -30.71,-64.66 29.93,-52.6zm-137.5 4.12c36.68,-28.38 62.4,27.16 34.19,46.33 -12.42,8.44 -31.24,6.71 -40.16,-5.56 -13.99,-19.22 -4.6,-32.6 5.97,-40.78zm244.21 -141.98c-193.79,-80.2 -415.11,42.53 -330.91,234.12 16.54,37.64 25.29,28.43 15.02,76.75 -6.54,30.79 -24.12,52.28 -24.98,72.69 30.68,-0.63 68.46,-12.18 94.79,-23.35 51.49,-21.84 43.47,-4.84 94.64,0.88 139.24,15.55 265.41,-88.97 246.45,-223.28 -8.62,-61.08 -53.06,-117.86 -95,-137.82z"/>
  <path class="fil1" d="M145.04 265.19c-10.57,8.18 -19.96,21.55 -5.97,40.78 8.92,12.27 27.75,14 40.16,5.56 28.21,-19.17 2.49,-74.71 -34.19,-46.33z"/>
  <path class="fil1" d="M282.54 261.06c-60.64,-12.06 -53.33,42.25 -29.93,52.6 36.47,16.13 50.68,-21.79 29.93,-52.6z"/>
  <path class="fil1" d="M386.05 261.3c-54.52,-11.83 -59.12,40.16 -29.72,52.61 38.37,16.24 48.11,-23.3 29.72,-52.61z"/>
 </g>
</svg>
