<?xml version="1.0" encoding="UTF-8"?>
<!DOCTYPE svg PUBLIC "-//W3C//DTD SVG 1.1//EN" "http://www.w3.org/Graphics/SVG/1.1/DTD/svg11.dtd">
<!-- Creator: CorelDRAW 2021 (64-Bit) -->
<svg xmlns="http://www.w3.org/2000/svg" xml:space="preserve" width="5mm" height="6.47059mm" version="1.1" style="shape-rendering:geometricPrecision; text-rendering:geometricPrecision; image-rendering:optimizeQuality; fill-rule:evenodd; clip-rule:evenodd"
viewBox="0 0 500 647.06"
 xmlns:xlink="http://www.w3.org/1999/xlink"
 xmlns:xodm="http://www.corel.com/coreldraw/odm/2003">
 <defs>
  <style type="text/css">
   <![CDATA[
    .fil0 {fill:white;fill-rule:nonzero}
   ]]>
  </style>
 </defs>
 <g id="Layer_x0020_1">
  <metadata id="CorelCorpID_0Corel-Layer"/>
  <path class="fil0" d="M256.85 60.76c30.78,0 60.29,14.02 82.05,38.97 21.77,24.95 33.99,58.79 33.99,94.07 0,35.29 -12.22,69.13 -33.99,94.08 -21.76,24.95 -51.27,38.97 -82.05,38.97 -30.78,0 -60.29,-14.02 -82.05,-38.97 -21.77,-24.96 -33.99,-58.79 -33.99,-94.08 0,-35.29 12.22,-69.13 33.99,-94.07 21.76,-24.95 51.27,-38.97 82.05,-38.97zm0 332.61c128.22,0 232.08,59.54 232.08,133.04l0 66.53 -464.16 0 0 -66.53c0,-73.5 103.86,-133.04 232.08,-133.04z"/>
 </g>
</svg>
