<svg xmlns="http://www.w3.org/2000/svg" width="23" height="22" viewBox="0 0 23 22" fill="none">
  <path d="M11.5699 0C13.0234 0 14.4174 0.577405 15.4452 1.60519C16.473 2.63298 17.0504 4.02696 17.0504 5.48047C17.0504 6.93398 16.473 8.32796 15.4452 9.35575C14.4174 10.3835 13.0234 10.9609 11.5699 10.9609C10.1164 10.9609 8.7224 10.3835 7.69461 9.35575C6.66682 8.32796 6.08942 6.93398 6.08942 5.48047C6.08942 4.02696 6.66682 2.63298 7.69461 1.60519C8.7224 0.577405 10.1164 0 11.5699 0ZM11.5699 13.7012C17.6258 13.7012 22.5308 16.1537 22.5308 19.1816V21.9219H0.608948V19.1816C0.608948 16.1537 5.51397 13.7012 11.5699 13.7012Z" fill="#AFAFAF"/>
</svg>