<?xml version="1.0" encoding="UTF-8"?>
<!DOCTYPE svg PUBLIC "-//W3C//DTD SVG 1.1//EN" "http://www.w3.org/Graphics/SVG/1.1/DTD/svg11.dtd">
<!-- Creator: CorelDRAW 2021 (64-Bit) -->
<svg xmlns="http://www.w3.org/2000/svg" xml:space="preserve" width="50mm" height="64.7059mm" version="1.1" style="shape-rendering:geometricPrecision; text-rendering:geometricPrecision; image-rendering:optimizeQuality; fill-rule:evenodd; clip-rule:evenodd"
viewBox="0 0 5000 6470.59"
 xmlns:xlink="http://www.w3.org/1999/xlink"
 xmlns:xodm="http://www.corel.com/coreldraw/odm/2003">
 <defs>
  <style type="text/css">
   <![CDATA[
    .fil0 {fill:white;fill-rule:nonzero}
   ]]>
  </style>
 </defs>
 <g id="Layer_x0020_1">
  <metadata id="CorelCorpID_0Corel-Layer"/>
  <path class="fil0" d="M2501.3 3236.64c3.79,0 7.03,-1.41 9.73,-4.22 2.7,-2.81 4.04,-6.19 4.04,-10.14 0,-3.95 -1.35,-7.33 -4.04,-10.15 -2.7,-2.81 -5.94,-4.21 -9.73,-4.21 -3.79,0 -7.03,1.41 -9.72,4.21 -2.7,2.82 -4.05,6.2 -4.05,10.15 0,3.95 1.35,7.33 4.05,10.14 2.7,2.82 5.94,4.22 9.72,4.22zm0 69.12c-0.92,0 -1.84,-0.18 -2.75,-0.54 -0.92,-0.36 -1.72,-0.84 -2.41,-1.44 -16.76,-15.44 -29.28,-29.77 -37.54,-42.99 -8.27,-13.23 -12.4,-25.59 -12.4,-37.08 0,-17.95 5.54,-32.26 16.62,-42.91 11.08,-10.65 23.9,-15.98 38.48,-15.98 14.58,0 27.41,5.33 38.49,15.98 11.08,10.65 16.62,24.96 16.62,42.91 0,11.49 -4.13,23.85 -12.4,37.08 -8.27,13.22 -20.78,27.55 -37.54,42.99 -0.69,0.6 -1.49,1.08 -2.41,1.44 -0.92,0.36 -1.84,0.54 -2.76,0.54z"/>
 </g>
</svg>
